<?xml version="1.0" encoding="utf-8"?>
<!-- Generator: Adobe Illustrator 25.4.0, SVG Export Plug-In . SVG Version: 6.00 Build 0)  -->
<svg version="1.1" id="레이어_1" xmlns="http://www.w3.org/2000/svg" xmlns:xlink="http://www.w3.org/1999/xlink" x="0px"
	 y="0px" viewBox="0 0 158.9 166" style="enable-background:new 0 0 158.9 166;" xml:space="preserve">
<style type="text/css">
	.st0{fill:#040000;}
</style>
<g>
	<path class="st0" d="M84.6,91.7V70.5h10.6V59.9h42.4v10.6h-31.8v10.6h10.6v10.6h-10.6v10.6H95.2V91.7H84.6z M84.6,155.4v-10.6h10.6
		v-10.6h10.6v10.6H127v10.6h-10.6V166H95.2v-10.6H84.6z M116.4,113v-10.6H127V81.1h10.6V70.5h10.6v63.6h-10.6v10.6H127V113H116.4z
		 M148.2,70.5V59.9h10.6v10.6H148.2z"/>
</g>
<g>
	<path class="st0" d="M0,32.2V10.7h10.7V0h42.9v10.7H21.5v10.7h10.7v10.7H21.5v10.7H10.7V32.2H0z M0,96.5V85.8h10.7V75.1h10.7v10.7
		h21.5v10.7H32.2v10.7H10.7V96.5H0z M32.2,53.6V42.9h10.7V21.5h10.7V10.7h10.7v64.4H53.6v10.7H42.9V53.6H32.2z M64.4,10.7V0h10.7
		v10.7H64.4z"/>
</g>
</svg>
