<?xml version="1.0" encoding="utf-8"?>
<!-- Generator: Adobe Illustrator 25.4.0, SVG Export Plug-In . SVG Version: 6.00 Build 0)  -->
<svg version="1.1" id="레이어_1" xmlns="http://www.w3.org/2000/svg" xmlns:xlink="http://www.w3.org/1999/xlink" x="0px"
	 y="0px" viewBox="0 0 202.1 202.1" style="enable-background:new 0 0 202.1 202.1;" xml:space="preserve">
<style type="text/css">
	.st0{fill:#fcf003;}
</style>
<path class="st0" d="M0,0v202.1h202.1V0H0z M200,6.5h-4.3V2.1h4.3V6.5z M98.9,103.2v-4.3h4.3v4.3H98.9z M103.2,105.4v4.3h-4.3v-4.3
	H103.2z M96.8,103.2h-4.3v-4.3h4.3V103.2z M98.9,96.8v-4.3h4.3v4.3H98.9z M105.4,98.9h4.3v4.3h-4.3V98.9z M105.4,96.8v-4.3h4.3v4.3
	H105.4z M105.4,90.3V86h4.3v4.3H105.4z M103.2,90.3h-4.3V86h4.3V90.3z M96.8,90.3h-4.3V86h4.3V90.3z M96.8,92.4v4.3h-4.3v-4.3H96.8z
	 M90.3,96.8H86v-4.3h4.3V96.8z M90.3,98.9v4.3H86v-4.3H90.3z M90.3,105.4v4.3H86v-4.3H90.3z M92.4,105.4h4.3v4.3h-4.3V105.4z
	 M96.8,111.8v4.3h-4.3v-4.3H96.8z M98.9,111.8h4.3v4.3h-4.3V111.8z M105.4,111.8h4.3v4.3h-4.3V111.8z M105.4,109.7v-4.3h4.3v4.3
	H105.4z M111.8,105.4h4.3v4.3h-4.3V105.4z M111.8,103.2v-4.3h4.3v4.3H111.8z M111.8,96.8v-4.3h4.3v4.3H111.8z M111.8,90.3V86h4.3
	v4.3H111.8z M111.8,83.9v-4.3h4.3v4.3H111.8z M109.7,83.9h-4.3v-4.3h4.3V83.9z M103.2,83.9h-4.3v-4.3h4.3V83.9z M96.8,83.9h-4.3
	v-4.3h4.3V83.9z M90.3,83.9H86v-4.3h4.3V83.9z M90.3,86v4.3H86V86H90.3z M83.9,90.3h-4.3V86h4.3V90.3z M83.9,92.4v4.3h-4.3v-4.3
	H83.9z M83.9,98.9v4.3h-4.3v-4.3H83.9z M83.9,105.4v4.3h-4.3v-4.3H83.9z M83.9,111.8v4.3h-4.3v-4.3H83.9z M86,111.8h4.3v4.3H86
	V111.8z M90.3,118.3v4.3H86v-4.3H90.3z M92.4,118.3h4.3v4.3h-4.3V118.3z M98.9,118.3h4.3v4.3h-4.3V118.3z M105.4,118.3h4.3v4.3h-4.3
	V118.3z M111.8,118.3h4.3v4.3h-4.3V118.3z M111.8,116.1v-4.3h4.3v4.3H111.8z M118.3,111.8h4.3v4.3h-4.3V111.8z M118.3,109.7v-4.3
	h4.3v4.3H118.3z M118.3,103.2v-4.3h4.3v4.3H118.3z M118.3,96.8v-4.3h4.3v4.3H118.3z M118.3,90.3V86h4.3v4.3H118.3z M118.3,83.9v-4.3
	h4.3v4.3H118.3z M118.3,77.4v-4.3h4.3v4.3H118.3z M116.1,77.4h-4.3v-4.3h4.3V77.4z M109.7,77.4h-4.3v-4.3h4.3V77.4z M103.2,77.4
	h-4.3v-4.3h4.3V77.4z M96.8,77.4h-4.3v-4.3h4.3V77.4z M90.3,77.4H86v-4.3h4.3V77.4z M83.9,77.4h-4.3v-4.3h4.3V77.4z M83.9,79.5v4.3
	h-4.3v-4.3H83.9z M77.4,83.9h-4.3v-4.3h4.3V83.9z M77.4,86v4.3h-4.3V86H77.4z M77.4,92.4v4.3h-4.3v-4.3H77.4z M77.4,98.9v4.3h-4.3
	v-4.3H77.4z M77.4,105.4v4.3h-4.3v-4.3H77.4z M77.4,111.8v4.3h-4.3v-4.3H77.4z M77.4,118.3v4.3h-4.3v-4.3H77.4z M79.5,118.3h4.3v4.3
	h-4.3V118.3z M83.9,124.7v4.3h-4.3v-4.3H83.9z M86,124.7h4.3v4.3H86V124.7z M92.4,124.7h4.3v4.3h-4.3V124.7z M98.9,124.7h4.3v4.3
	h-4.3V124.7z M105.4,124.7h4.3v4.3h-4.3V124.7z M111.8,124.7h4.3v4.3h-4.3V124.7z M118.3,124.7h4.3v4.3h-4.3V124.7z M118.3,122.6
	v-4.3h4.3v4.3H118.3z M124.7,118.3h4.3v4.3h-4.3V118.3z M124.7,116.1v-4.3h4.3v4.3H124.7z M124.7,109.7v-4.3h4.3v4.3H124.7z
	 M124.7,103.2v-4.3h4.3v4.3H124.7z M124.7,96.8v-4.3h4.3v4.3H124.7z M124.7,90.3V86h4.3v4.3H124.7z M124.7,83.9v-4.3h4.3v4.3H124.7z
	 M124.7,77.4v-4.3h4.3v4.3H124.7z M124.7,71v-4.3h4.3V71H124.7z M122.6,71h-4.3v-4.3h4.3V71z M116.1,71h-4.3v-4.3h4.3V71z M109.7,71
	h-4.3v-4.3h4.3V71z M103.2,71h-4.3v-4.3h4.3V71z M96.8,71h-4.3v-4.3h4.3V71z M90.3,71H86v-4.3h4.3V71z M83.9,71h-4.3v-4.3h4.3V71z
	 M77.4,71h-4.3v-4.3h4.3V71z M77.4,73.1v4.3h-4.3v-4.3H77.4z M71,77.4h-4.3v-4.3H71V77.4z M71,79.5v4.3h-4.3v-4.3H71z M71,86v4.3
	h-4.3V86H71z M71,92.4v4.3h-4.3v-4.3H71z M71,98.9v4.3h-4.3v-4.3H71z M71,105.4v4.3h-4.3v-4.3H71z M71,111.8v4.3h-4.3v-4.3H71z
	 M71,118.3v4.3h-4.3v-4.3H71z M71,124.7v4.3h-4.3v-4.3H71z M73.1,124.7h4.3v4.3h-4.3V124.7z M77.4,131.2v4.3h-4.3v-4.3H77.4z
	 M79.5,131.2h4.3v4.3h-4.3V131.2z M86,131.2h4.3v4.3H86V131.2z M92.4,131.2h4.3v4.3h-4.3V131.2z M98.9,131.2h4.3v4.3h-4.3V131.2z
	 M105.4,131.2h4.3v4.3h-4.3V131.2z M111.8,131.2h4.3v4.3h-4.3V131.2z M118.3,131.2h4.3v4.3h-4.3V131.2z M124.7,131.2h4.3v4.3h-4.3
	V131.2z M124.7,129v-4.3h4.3v4.3H124.7z M131.2,124.7h4.3v4.3h-4.3V124.7z M131.2,122.6v-4.3h4.3v4.3H131.2z M131.2,116.1v-4.3h4.3
	v4.3H131.2z M131.2,109.7v-4.3h4.3v4.3H131.2z M131.2,103.2v-4.3h4.3v4.3H131.2z M131.2,96.8v-4.3h4.3v4.3H131.2z M131.2,90.3V86
	h4.3v4.3H131.2z M131.2,83.9v-4.3h4.3v4.3H131.2z M131.2,77.4v-4.3h4.3v4.3H131.2z M131.2,71v-4.3h4.3V71H131.2z M131.2,64.5v-4.3
	h4.3v4.3H131.2z M129,64.5h-4.3v-4.3h4.3V64.5z M122.6,64.5h-4.3v-4.3h4.3V64.5z M116.1,64.5h-4.3v-4.3h4.3V64.5z M109.7,64.5h-4.3
	v-4.3h4.3V64.5z M103.2,64.5h-4.3v-4.3h4.3V64.5z M96.8,64.5h-4.3v-4.3h4.3V64.5z M90.3,64.5H86v-4.3h4.3V64.5z M83.9,64.5h-4.3
	v-4.3h4.3V64.5z M77.4,64.5h-4.3v-4.3h4.3V64.5z M71,64.5h-4.3v-4.3H71V64.5z M71,66.6V71h-4.3v-4.3H71z M64.5,71h-4.3v-4.3h4.3V71z
	 M64.5,73.1v4.3h-4.3v-4.3H64.5z M64.5,79.5v4.3h-4.3v-4.3H64.5z M64.5,86v4.3h-4.3V86H64.5z M64.5,92.4v4.3h-4.3v-4.3H64.5z
	 M64.5,98.9v4.3h-4.3v-4.3H64.5z M64.5,105.4v4.3h-4.3v-4.3H64.5z M64.5,111.8v4.3h-4.3v-4.3H64.5z M64.5,118.3v4.3h-4.3v-4.3H64.5z
	 M64.5,124.7v4.3h-4.3v-4.3H64.5z M64.5,131.2v4.3h-4.3v-4.3H64.5z M66.6,131.2H71v4.3h-4.3V131.2z M71,137.6v4.3h-4.3v-4.3H71z
	 M73.1,137.6h4.3v4.3h-4.3V137.6z M79.5,137.6h4.3v4.3h-4.3V137.6z M86,137.6h4.3v4.3H86V137.6z M92.4,137.6h4.3v4.3h-4.3V137.6z
	 M98.9,137.6h4.3v4.3h-4.3V137.6z M105.4,137.6h4.3v4.3h-4.3V137.6z M111.8,137.6h4.3v4.3h-4.3V137.6z M118.3,137.6h4.3v4.3h-4.3
	V137.6z M124.7,137.6h4.3v4.3h-4.3V137.6z M131.2,137.6h4.3v4.3h-4.3V137.6z M131.2,135.5v-4.3h4.3v4.3H131.2z M137.6,131.2h4.3v4.3
	h-4.3V131.2z M137.6,129v-4.3h4.3v4.3H137.6z M137.6,122.6v-4.3h4.3v4.3H137.6z M137.6,116.1v-4.3h4.3v4.3H137.6z M137.6,109.7v-4.3
	h4.3v4.3H137.6z M137.6,103.2v-4.3h4.3v4.3H137.6z M137.6,96.8v-4.3h4.3v4.3H137.6z M137.6,90.3V86h4.3v4.3H137.6z M137.6,83.9v-4.3
	h4.3v4.3H137.6z M137.6,77.4v-4.3h4.3v4.3H137.6z M137.6,71v-4.3h4.3V71H137.6z M137.6,64.5v-4.3h4.3v4.3H137.6z M137.6,58.1v-4.3
	h4.3v4.3H137.6z M135.5,58.1h-4.3v-4.3h4.3V58.1z M129,58.1h-4.3v-4.3h4.3V58.1z M122.6,58.1h-4.3v-4.3h4.3V58.1z M116.1,58.1h-4.3
	v-4.3h4.3V58.1z M109.7,58.1h-4.3v-4.3h4.3V58.1z M103.2,58.1h-4.3v-4.3h4.3V58.1z M96.8,58.1h-4.3v-4.3h4.3V58.1z M90.3,58.1H86
	v-4.3h4.3V58.1z M83.9,58.1h-4.3v-4.3h4.3V58.1z M77.4,58.1h-4.3v-4.3h4.3V58.1z M71,58.1h-4.3v-4.3H71V58.1z M64.5,58.1h-4.3v-4.3
	h4.3V58.1z M64.5,60.2v4.3h-4.3v-4.3H64.5z M58.1,64.5h-4.3v-4.3h4.3V64.5z M58.1,66.6V71h-4.3v-4.3H58.1z M58.1,73.1v4.3h-4.3v-4.3
	H58.1z M58.1,79.5v4.3h-4.3v-4.3H58.1z M58.1,86v4.3h-4.3V86H58.1z M58.1,92.4v4.3h-4.3v-4.3H58.1z M58.1,98.9v4.3h-4.3v-4.3H58.1z
	 M58.1,105.4v4.3h-4.3v-4.3H58.1z M58.1,111.8v4.3h-4.3v-4.3H58.1z M58.1,118.3v4.3h-4.3v-4.3H58.1z M58.1,124.7v4.3h-4.3v-4.3H58.1
	z M58.1,131.2v4.3h-4.3v-4.3H58.1z M58.1,137.6v4.3h-4.3v-4.3H58.1z M60.2,137.6h4.3v4.3h-4.3V137.6z M64.5,144.1v4.3h-4.3v-4.3
	H64.5z M66.6,144.1H71v4.3h-4.3V144.1z M73.1,144.1h4.3v4.3h-4.3V144.1z M79.5,144.1h4.3v4.3h-4.3V144.1z M86,144.1h4.3v4.3H86
	V144.1z M92.4,144.1h4.3v4.3h-4.3V144.1z M98.9,144.1h4.3v4.3h-4.3V144.1z M105.4,144.1h4.3v4.3h-4.3V144.1z M111.8,144.1h4.3v4.3
	h-4.3V144.1z M118.3,144.1h4.3v4.3h-4.3V144.1z M124.7,144.1h4.3v4.3h-4.3V144.1z M131.2,144.1h4.3v4.3h-4.3V144.1z M137.6,144.1
	h4.3v4.3h-4.3V144.1z M137.6,141.9v-4.3h4.3v4.3H137.6z M144.1,137.6h4.3v4.3h-4.3V137.6z M144.1,135.5v-4.3h4.3v4.3H144.1z
	 M144.1,129v-4.3h4.3v4.3H144.1z M144.1,122.6v-4.3h4.3v4.3H144.1z M144.1,116.1v-4.3h4.3v4.3H144.1z M144.1,109.7v-4.3h4.3v4.3
	H144.1z M144.1,103.2v-4.3h4.3v4.3H144.1z M144.1,96.8v-4.3h4.3v4.3H144.1z M144.1,90.3V86h4.3v4.3H144.1z M144.1,83.9v-4.3h4.3v4.3
	H144.1z M144.1,77.4v-4.3h4.3v4.3H144.1z M144.1,71v-4.3h4.3V71H144.1z M144.1,64.5v-4.3h4.3v4.3H144.1z M144.1,58.1v-4.3h4.3v4.3
	H144.1z M144.1,51.6v-4.3h4.3v4.3H144.1z M141.9,51.6h-4.3v-4.3h4.3V51.6z M135.5,51.6h-4.3v-4.3h4.3V51.6z M129,51.6h-4.3v-4.3h4.3
	V51.6z M122.6,51.6h-4.3v-4.3h4.3V51.6z M116.1,51.6h-4.3v-4.3h4.3V51.6z M109.7,51.6h-4.3v-4.3h4.3V51.6z M103.2,51.6h-4.3v-4.3
	h4.3V51.6z M96.8,51.6h-4.3v-4.3h4.3V51.6z M90.3,51.6H86v-4.3h4.3V51.6z M83.9,51.6h-4.3v-4.3h4.3V51.6z M77.4,51.6h-4.3v-4.3h4.3
	V51.6z M71,51.6h-4.3v-4.3H71V51.6z M64.5,51.6h-4.3v-4.3h4.3V51.6z M58.1,51.6h-4.3v-4.3h4.3V51.6z M58.1,53.7v4.3h-4.3v-4.3H58.1z
	 M51.6,58.1h-4.3v-4.3h4.3V58.1z M51.6,60.2v4.3h-4.3v-4.3H51.6z M51.6,66.6V71h-4.3v-4.3H51.6z M51.6,73.1v4.3h-4.3v-4.3H51.6z
	 M51.6,79.5v4.3h-4.3v-4.3H51.6z M51.6,86v4.3h-4.3V86H51.6z M51.6,92.4v4.3h-4.3v-4.3H51.6z M51.6,98.9v4.3h-4.3v-4.3H51.6z
	 M51.6,105.4v4.3h-4.3v-4.3H51.6z M51.6,111.8v4.3h-4.3v-4.3H51.6z M51.6,118.3v4.3h-4.3v-4.3H51.6z M51.6,124.7v4.3h-4.3v-4.3H51.6
	z M51.6,131.2v4.3h-4.3v-4.3H51.6z M51.6,137.6v4.3h-4.3v-4.3H51.6z M51.6,144.1v4.3h-4.3v-4.3H51.6z M53.7,144.1h4.3v4.3h-4.3
	V144.1z M58.1,150.5v4.3h-4.3v-4.3H58.1z M60.2,150.5h4.3v4.3h-4.3V150.5z M66.6,150.5H71v4.3h-4.3V150.5z M73.1,150.5h4.3v4.3h-4.3
	V150.5z M79.5,150.5h4.3v4.3h-4.3V150.5z M86,150.5h4.3v4.3H86V150.5z M92.4,150.5h4.3v4.3h-4.3V150.5z M98.9,150.5h4.3v4.3h-4.3
	V150.5z M105.4,150.5h4.3v4.3h-4.3V150.5z M111.8,150.5h4.3v4.3h-4.3V150.5z M118.3,150.5h4.3v4.3h-4.3V150.5z M124.7,150.5h4.3v4.3
	h-4.3V150.5z M131.2,150.5h4.3v4.3h-4.3V150.5z M137.6,150.5h4.3v4.3h-4.3V150.5z M144.1,150.5h4.3v4.3h-4.3V150.5z M144.1,148.4
	v-4.3h4.3v4.3H144.1z M150.5,144.1h4.3v4.3h-4.3V144.1z M150.5,141.9v-4.3h4.3v4.3H150.5z M150.5,135.5v-4.3h4.3v4.3H150.5z
	 M150.5,129v-4.3h4.3v4.3H150.5z M150.5,122.6v-4.3h4.3v4.3H150.5z M150.5,116.1v-4.3h4.3v4.3H150.5z M150.5,109.7v-4.3h4.3v4.3
	H150.5z M150.5,103.2v-4.3h4.3v4.3H150.5z M150.5,96.8v-4.3h4.3v4.3H150.5z M150.5,90.3V86h4.3v4.3H150.5z M150.5,83.9v-4.3h4.3v4.3
	H150.5z M150.5,77.4v-4.3h4.3v4.3H150.5z M150.5,71v-4.3h4.3V71H150.5z M150.5,64.5v-4.3h4.3v4.3H150.5z M150.5,58.1v-4.3h4.3v4.3
	H150.5z M150.5,51.6v-4.3h4.3v4.3H150.5z M150.5,45.2v-4.3h4.3v4.3H150.5z M148.4,45.2h-4.3v-4.3h4.3V45.2z M141.9,45.2h-4.3v-4.3
	h4.3V45.2z M135.5,45.2h-4.3v-4.3h4.3V45.2z M129,45.2h-4.3v-4.3h4.3V45.2z M122.6,45.2h-4.3v-4.3h4.3V45.2z M116.1,45.2h-4.3v-4.3
	h4.3V45.2z M109.7,45.2h-4.3v-4.3h4.3V45.2z M103.2,45.2h-4.3v-4.3h4.3V45.2z M96.8,45.2h-4.3v-4.3h4.3V45.2z M90.3,45.2H86v-4.3
	h4.3V45.2z M83.9,45.2h-4.3v-4.3h4.3V45.2z M77.4,45.2h-4.3v-4.3h4.3V45.2z M71,45.2h-4.3v-4.3H71V45.2z M64.5,45.2h-4.3v-4.3h4.3
	V45.2z M58.1,45.2h-4.3v-4.3h4.3V45.2z M51.6,45.2h-4.3v-4.3h4.3V45.2z M51.6,47.3v4.3h-4.3v-4.3H51.6z M45.2,51.6h-4.3v-4.3h4.3
	V51.6z M45.2,53.7v4.3h-4.3v-4.3H45.2z M45.2,60.2v4.3h-4.3v-4.3H45.2z M45.2,66.6V71h-4.3v-4.3H45.2z M45.2,73.1v4.3h-4.3v-4.3
	H45.2z M45.2,79.5v4.3h-4.3v-4.3H45.2z M45.2,86v4.3h-4.3V86H45.2z M45.2,92.4v4.3h-4.3v-4.3H45.2z M45.2,98.9v4.3h-4.3v-4.3H45.2z
	 M45.2,105.4v4.3h-4.3v-4.3H45.2z M45.2,111.8v4.3h-4.3v-4.3H45.2z M45.2,118.3v4.3h-4.3v-4.3H45.2z M45.2,124.7v4.3h-4.3v-4.3H45.2
	z M45.2,131.2v4.3h-4.3v-4.3H45.2z M45.2,137.6v4.3h-4.3v-4.3H45.2z M45.2,144.1v4.3h-4.3v-4.3H45.2z M45.2,150.5v4.3h-4.3v-4.3
	H45.2z M47.3,150.5h4.3v4.3h-4.3V150.5z M51.6,157v4.3h-4.3V157H51.6z M53.7,157h4.3v4.3h-4.3V157z M60.2,157h4.3v4.3h-4.3V157z
	 M66.6,157H71v4.3h-4.3V157z M73.1,157h4.3v4.3h-4.3V157z M79.5,157h4.3v4.3h-4.3V157z M86,157h4.3v4.3H86V157z M92.4,157h4.3v4.3
	h-4.3V157z M98.9,157h4.3v4.3h-4.3V157z M105.4,157h4.3v4.3h-4.3V157z M111.8,157h4.3v4.3h-4.3V157z M118.3,157h4.3v4.3h-4.3V157z
	 M124.7,157h4.3v4.3h-4.3V157z M131.2,157h4.3v4.3h-4.3V157z M137.6,157h4.3v4.3h-4.3V157z M144.1,157h4.3v4.3h-4.3V157z M150.5,157
	h4.3v4.3h-4.3V157z M150.5,154.8v-4.3h4.3v4.3H150.5z M157,150.5h4.3v4.3H157V150.5z M157,148.4v-4.3h4.3v4.3H157z M157,141.9v-4.3
	h4.3v4.3H157z M157,135.5v-4.3h4.3v4.3H157z M157,129v-4.3h4.3v4.3H157z M157,122.6v-4.3h4.3v4.3H157z M157,116.1v-4.3h4.3v4.3H157z
	 M157,109.7v-4.3h4.3v4.3H157z M157,103.2v-4.3h4.3v4.3H157z M157,96.8v-4.3h4.3v4.3H157z M157,90.3V86h4.3v4.3H157z M157,83.9v-4.3
	h4.3v4.3H157z M157,77.4v-4.3h4.3v4.3H157z M157,71v-4.3h4.3V71H157z M157,64.5v-4.3h4.3v4.3H157z M157,58.1v-4.3h4.3v4.3H157z
	 M157,51.6v-4.3h4.3v4.3H157z M157,45.2v-4.3h4.3v4.3H157z M157,38.7v-4.3h4.3v4.3H157z M154.8,38.7h-4.3v-4.3h4.3V38.7z
	 M148.4,38.7h-4.3v-4.3h4.3V38.7z M141.9,38.7h-4.3v-4.3h4.3V38.7z M135.5,38.7h-4.3v-4.3h4.3V38.7z M129,38.7h-4.3v-4.3h4.3V38.7z
	 M122.6,38.7h-4.3v-4.3h4.3V38.7z M116.1,38.7h-4.3v-4.3h4.3V38.7z M109.7,38.7h-4.3v-4.3h4.3V38.7z M103.2,38.7h-4.3v-4.3h4.3V38.7
	z M96.8,38.7h-4.3v-4.3h4.3V38.7z M90.3,38.7H86v-4.3h4.3V38.7z M83.9,38.7h-4.3v-4.3h4.3V38.7z M77.4,38.7h-4.3v-4.3h4.3V38.7z
	 M71,38.7h-4.3v-4.3H71V38.7z M64.5,38.7h-4.3v-4.3h4.3V38.7z M58.1,38.7h-4.3v-4.3h4.3V38.7z M51.6,38.7h-4.3v-4.3h4.3V38.7z
	 M45.2,38.7h-4.3v-4.3h4.3V38.7z M45.2,40.8v4.3h-4.3v-4.3H45.2z M38.7,45.2h-4.3v-4.3h4.3V45.2z M38.7,47.3v4.3h-4.3v-4.3H38.7z
	 M38.7,53.7v4.3h-4.3v-4.3H38.7z M38.7,60.2v4.3h-4.3v-4.3H38.7z M38.7,66.6V71h-4.3v-4.3H38.7z M38.7,73.1v4.3h-4.3v-4.3H38.7z
	 M38.7,79.5v4.3h-4.3v-4.3H38.7z M38.7,86v4.3h-4.3V86H38.7z M38.7,92.4v4.3h-4.3v-4.3H38.7z M38.7,98.9v4.3h-4.3v-4.3H38.7z
	 M38.7,105.4v4.3h-4.3v-4.3H38.7z M38.7,111.8v4.3h-4.3v-4.3H38.7z M38.7,118.3v4.3h-4.3v-4.3H38.7z M38.7,124.7v4.3h-4.3v-4.3H38.7
	z M38.7,131.2v4.3h-4.3v-4.3H38.7z M38.7,137.6v4.3h-4.3v-4.3H38.7z M38.7,144.1v4.3h-4.3v-4.3H38.7z M38.7,150.5v4.3h-4.3v-4.3
	H38.7z M38.7,157v4.3h-4.3V157H38.7z M40.8,157h4.3v4.3h-4.3V157z M45.2,163.4v4.3h-4.3v-4.3H45.2z M47.3,163.4h4.3v4.3h-4.3V163.4z
	 M53.7,163.4h4.3v4.3h-4.3V163.4z M60.2,163.4h4.3v4.3h-4.3V163.4z M66.6,163.4H71v4.3h-4.3V163.4z M73.1,163.4h4.3v4.3h-4.3V163.4z
	 M79.5,163.4h4.3v4.3h-4.3V163.4z M86,163.4h4.3v4.3H86V163.4z M92.4,163.4h4.3v4.3h-4.3V163.4z M98.9,163.4h4.3v4.3h-4.3V163.4z
	 M105.4,163.4h4.3v4.3h-4.3V163.4z M111.8,163.4h4.3v4.3h-4.3V163.4z M118.3,163.4h4.3v4.3h-4.3V163.4z M124.7,163.4h4.3v4.3h-4.3
	V163.4z M131.2,163.4h4.3v4.3h-4.3V163.4z M137.6,163.4h4.3v4.3h-4.3V163.4z M144.1,163.4h4.3v4.3h-4.3V163.4z M150.5,163.4h4.3v4.3
	h-4.3V163.4z M157,163.4h4.3v4.3H157V163.4z M157,161.3V157h4.3v4.3H157z M163.4,157h4.3v4.3h-4.3V157z M163.4,154.8v-4.3h4.3v4.3
	H163.4z M163.4,148.4v-4.3h4.3v4.3H163.4z M163.4,141.9v-4.3h4.3v4.3H163.4z M163.4,135.5v-4.3h4.3v4.3H163.4z M163.4,129v-4.3h4.3
	v4.3H163.4z M163.4,122.6v-4.3h4.3v4.3H163.4z M163.4,116.1v-4.3h4.3v4.3H163.4z M163.4,109.7v-4.3h4.3v4.3H163.4z M163.4,103.2
	v-4.3h4.3v4.3H163.4z M163.4,96.8v-4.3h4.3v4.3H163.4z M163.4,90.3V86h4.3v4.3H163.4z M163.4,83.9v-4.3h4.3v4.3H163.4z M163.4,77.4
	v-4.3h4.3v4.3H163.4z M163.4,71v-4.3h4.3V71H163.4z M163.4,64.5v-4.3h4.3v4.3H163.4z M163.4,58.1v-4.3h4.3v4.3H163.4z M163.4,51.6
	v-4.3h4.3v4.3H163.4z M163.4,45.2v-4.3h4.3v4.3H163.4z M163.4,38.7v-4.3h4.3v4.3H163.4z M163.4,32.3v-4.3h4.3v4.3H163.4z
	 M161.3,32.3H157v-4.3h4.3V32.3z M154.8,32.3h-4.3v-4.3h4.3V32.3z M148.4,32.3h-4.3v-4.3h4.3V32.3z M141.9,32.3h-4.3v-4.3h4.3V32.3z
	 M135.5,32.3h-4.3v-4.3h4.3V32.3z M129,32.3h-4.3v-4.3h4.3V32.3z M122.6,32.3h-4.3v-4.3h4.3V32.3z M116.1,32.3h-4.3v-4.3h4.3V32.3z
	 M109.7,32.3h-4.3v-4.3h4.3V32.3z M103.2,32.3h-4.3v-4.3h4.3V32.3z M96.8,32.3h-4.3v-4.3h4.3V32.3z M90.3,32.3H86v-4.3h4.3V32.3z
	 M83.9,32.3h-4.3v-4.3h4.3V32.3z M77.4,32.3h-4.3v-4.3h4.3V32.3z M71,32.3h-4.3v-4.3H71V32.3z M64.5,32.3h-4.3v-4.3h4.3V32.3z
	 M58.1,32.3h-4.3v-4.3h4.3V32.3z M51.6,32.3h-4.3v-4.3h4.3V32.3z M45.2,32.3h-4.3v-4.3h4.3V32.3z M38.7,32.3h-4.3v-4.3h4.3V32.3z
	 M38.7,34.4v4.3h-4.3v-4.3H38.7z M32.3,38.7h-4.3v-4.3h4.3V38.7z M32.3,40.8v4.3h-4.3v-4.3H32.3z M32.3,47.3v4.3h-4.3v-4.3H32.3z
	 M32.3,53.7v4.3h-4.3v-4.3H32.3z M32.3,60.2v4.3h-4.3v-4.3H32.3z M32.3,66.6V71h-4.3v-4.3H32.3z M32.3,73.1v4.3h-4.3v-4.3H32.3z
	 M32.3,79.5v4.3h-4.3v-4.3H32.3z M32.3,86v4.3h-4.3V86H32.3z M32.3,92.4v4.3h-4.3v-4.3H32.3z M32.3,98.9v4.3h-4.3v-4.3H32.3z
	 M32.3,105.4v4.3h-4.3v-4.3H32.3z M32.3,111.8v4.3h-4.3v-4.3H32.3z M32.3,118.3v4.3h-4.3v-4.3H32.3z M32.3,124.7v4.3h-4.3v-4.3H32.3
	z M32.3,131.2v4.3h-4.3v-4.3H32.3z M32.3,137.6v4.3h-4.3v-4.3H32.3z M32.3,144.1v4.3h-4.3v-4.3H32.3z M32.3,150.5v4.3h-4.3v-4.3
	H32.3z M32.3,157v4.3h-4.3V157H32.3z M32.3,163.4v4.3h-4.3v-4.3H32.3z M34.4,163.4h4.3v4.3h-4.3V163.4z M38.7,169.9v4.3h-4.3v-4.3
	H38.7z M40.8,169.9h4.3v4.3h-4.3V169.9z M47.3,169.9h4.3v4.3h-4.3V169.9z M53.7,169.9h4.3v4.3h-4.3V169.9z M60.2,169.9h4.3v4.3h-4.3
	V169.9z M66.6,169.9H71v4.3h-4.3V169.9z M73.1,169.9h4.3v4.3h-4.3V169.9z M79.5,169.9h4.3v4.3h-4.3V169.9z M86,169.9h4.3v4.3H86
	V169.9z M92.4,169.9h4.3v4.3h-4.3V169.9z M98.9,169.9h4.3v4.3h-4.3V169.9z M105.4,169.9h4.3v4.3h-4.3V169.9z M111.8,169.9h4.3v4.3
	h-4.3V169.9z M118.3,169.9h4.3v4.3h-4.3V169.9z M124.7,169.9h4.3v4.3h-4.3V169.9z M131.2,169.9h4.3v4.3h-4.3V169.9z M137.6,169.9
	h4.3v4.3h-4.3V169.9z M144.1,169.9h4.3v4.3h-4.3V169.9z M150.5,169.9h4.3v4.3h-4.3V169.9z M157,169.9h4.3v4.3H157V169.9z
	 M163.4,169.9h4.3v4.3h-4.3V169.9z M163.4,167.7v-4.3h4.3v4.3H163.4z M169.9,163.4h4.3v4.3h-4.3V163.4z M169.9,161.3V157h4.3v4.3
	H169.9z M169.9,154.8v-4.3h4.3v4.3H169.9z M169.9,148.4v-4.3h4.3v4.3H169.9z M169.9,141.9v-4.3h4.3v4.3H169.9z M169.9,135.5v-4.3
	h4.3v4.3H169.9z M169.9,129v-4.3h4.3v4.3H169.9z M169.9,122.6v-4.3h4.3v4.3H169.9z M169.9,116.1v-4.3h4.3v4.3H169.9z M169.9,109.7
	v-4.3h4.3v4.3H169.9z M169.9,103.2v-4.3h4.3v4.3H169.9z M169.9,96.8v-4.3h4.3v4.3H169.9z M169.9,90.3V86h4.3v4.3H169.9z M169.9,83.9
	v-4.3h4.3v4.3H169.9z M169.9,77.4v-4.3h4.3v4.3H169.9z M169.9,71v-4.3h4.3V71H169.9z M169.9,64.5v-4.3h4.3v4.3H169.9z M169.9,58.1
	v-4.3h4.3v4.3H169.9z M169.9,51.6v-4.3h4.3v4.3H169.9z M169.9,45.2v-4.3h4.3v4.3H169.9z M169.9,38.7v-4.3h4.3v4.3H169.9z
	 M169.9,32.3v-4.3h4.3v4.3H169.9z M169.9,25.8v-4.3h4.3v4.3H169.9z M167.7,25.8h-4.3v-4.3h4.3V25.8z M161.3,25.8H157v-4.3h4.3V25.8z
	 M154.8,25.8h-4.3v-4.3h4.3V25.8z M148.4,25.8h-4.3v-4.3h4.3V25.8z M141.9,25.8h-4.3v-4.3h4.3V25.8z M135.5,25.8h-4.3v-4.3h4.3V25.8
	z M129,25.8h-4.3v-4.3h4.3V25.8z M122.6,25.8h-4.3v-4.3h4.3V25.8z M116.1,25.8h-4.3v-4.3h4.3V25.8z M109.7,25.8h-4.3v-4.3h4.3V25.8z
	 M103.2,25.8h-4.3v-4.3h4.3V25.8z M96.8,25.8h-4.3v-4.3h4.3V25.8z M90.3,25.8H86v-4.3h4.3V25.8z M83.9,25.8h-4.3v-4.3h4.3V25.8z
	 M77.4,25.8h-4.3v-4.3h4.3V25.8z M71,25.8h-4.3v-4.3H71V25.8z M64.5,25.8h-4.3v-4.3h4.3V25.8z M58.1,25.8h-4.3v-4.3h4.3V25.8z
	 M51.6,25.8h-4.3v-4.3h4.3V25.8z M45.2,25.8h-4.3v-4.3h4.3V25.8z M38.7,25.8h-4.3v-4.3h4.3V25.8z M32.3,25.8h-4.3v-4.3h4.3V25.8z
	 M32.3,27.9v4.3h-4.3v-4.3H32.3z M25.8,32.3h-4.3v-4.3h4.3V32.3z M25.8,34.4v4.3h-4.3v-4.3H25.8z M25.8,40.8v4.3h-4.3v-4.3H25.8z
	 M25.8,47.3v4.3h-4.3v-4.3H25.8z M25.8,53.7v4.3h-4.3v-4.3H25.8z M25.8,60.2v4.3h-4.3v-4.3H25.8z M25.8,66.6V71h-4.3v-4.3H25.8z
	 M25.8,73.1v4.3h-4.3v-4.3H25.8z M25.8,79.5v4.3h-4.3v-4.3H25.8z M25.8,86v4.3h-4.3V86H25.8z M25.8,92.4v4.3h-4.3v-4.3H25.8z
	 M25.8,98.9v4.3h-4.3v-4.3H25.8z M25.8,105.4v4.3h-4.3v-4.3H25.8z M25.8,111.8v4.3h-4.3v-4.3H25.8z M25.8,118.3v4.3h-4.3v-4.3H25.8z
	 M25.8,124.7v4.3h-4.3v-4.3H25.8z M25.8,131.2v4.3h-4.3v-4.3H25.8z M25.8,137.6v4.3h-4.3v-4.3H25.8z M25.8,144.1v4.3h-4.3v-4.3H25.8
	z M25.8,150.5v4.3h-4.3v-4.3H25.8z M25.8,157v4.3h-4.3V157H25.8z M25.8,163.4v4.3h-4.3v-4.3H25.8z M25.8,169.9v4.3h-4.3v-4.3H25.8z
	 M27.9,169.9h4.3v4.3h-4.3V169.9z M32.3,176.3v4.3h-4.3v-4.3H32.3z M34.4,176.3h4.3v4.3h-4.3V176.3z M40.8,176.3h4.3v4.3h-4.3V176.3
	z M47.3,176.3h4.3v4.3h-4.3V176.3z M53.7,176.3h4.3v4.3h-4.3V176.3z M60.2,176.3h4.3v4.3h-4.3V176.3z M66.6,176.3H71v4.3h-4.3V176.3
	z M73.1,176.3h4.3v4.3h-4.3V176.3z M79.5,176.3h4.3v4.3h-4.3V176.3z M86,176.3h4.3v4.3H86V176.3z M92.4,176.3h4.3v4.3h-4.3V176.3z
	 M98.9,176.3h4.3v4.3h-4.3V176.3z M105.4,176.3h4.3v4.3h-4.3V176.3z M111.8,176.3h4.3v4.3h-4.3V176.3z M118.3,176.3h4.3v4.3h-4.3
	V176.3z M124.7,176.3h4.3v4.3h-4.3V176.3z M131.2,176.3h4.3v4.3h-4.3V176.3z M137.6,176.3h4.3v4.3h-4.3V176.3z M144.1,176.3h4.3v4.3
	h-4.3V176.3z M150.5,176.3h4.3v4.3h-4.3V176.3z M157,176.3h4.3v4.3H157V176.3z M163.4,176.3h4.3v4.3h-4.3V176.3z M169.9,176.3h4.3
	v4.3h-4.3V176.3z M169.9,174.2v-4.3h4.3v4.3H169.9z M176.3,169.9h4.3v4.3h-4.3V169.9z M176.3,167.7v-4.3h4.3v4.3H176.3z
	 M176.3,161.3V157h4.3v4.3H176.3z M176.3,154.8v-4.3h4.3v4.3H176.3z M176.3,148.4v-4.3h4.3v4.3H176.3z M176.3,141.9v-4.3h4.3v4.3
	H176.3z M176.3,135.5v-4.3h4.3v4.3H176.3z M176.3,129v-4.3h4.3v4.3H176.3z M176.3,122.6v-4.3h4.3v4.3H176.3z M176.3,116.1v-4.3h4.3
	v4.3H176.3z M176.3,109.7v-4.3h4.3v4.3H176.3z M176.3,103.2v-4.3h4.3v4.3H176.3z M176.3,96.8v-4.3h4.3v4.3H176.3z M176.3,90.3V86
	h4.3v4.3H176.3z M176.3,83.9v-4.3h4.3v4.3H176.3z M176.3,77.4v-4.3h4.3v4.3H176.3z M176.3,71v-4.3h4.3V71H176.3z M176.3,64.5v-4.3
	h4.3v4.3H176.3z M176.3,58.1v-4.3h4.3v4.3H176.3z M176.3,51.6v-4.3h4.3v4.3H176.3z M176.3,45.2v-4.3h4.3v4.3H176.3z M176.3,38.7
	v-4.3h4.3v4.3H176.3z M176.3,32.3v-4.3h4.3v4.3H176.3z M176.3,25.8v-4.3h4.3v4.3H176.3z M176.3,19.4V15h4.3v4.3H176.3z M174.2,19.4
	h-4.3V15h4.3V19.4z M167.7,19.4h-4.3V15h4.3V19.4z M161.3,19.4H157V15h4.3V19.4z M154.8,19.4h-4.3V15h4.3V19.4z M148.4,19.4h-4.3V15
	h4.3V19.4z M141.9,19.4h-4.3V15h4.3V19.4z M135.5,19.4h-4.3V15h4.3V19.4z M129,19.4h-4.3V15h4.3V19.4z M122.6,19.4h-4.3V15h4.3V19.4
	z M116.1,19.4h-4.3V15h4.3V19.4z M109.7,19.4h-4.3V15h4.3V19.4z M103.2,19.4h-4.3V15h4.3V19.4z M96.8,19.4h-4.3V15h4.3V19.4z
	 M90.3,19.4H86V15h4.3V19.4z M83.9,19.4h-4.3V15h4.3V19.4z M77.4,19.4h-4.3V15h4.3V19.4z M71,19.4h-4.3V15H71V19.4z M64.5,19.4h-4.3
	V15h4.3V19.4z M58.1,19.4h-4.3V15h4.3V19.4z M51.6,19.4h-4.3V15h4.3V19.4z M45.2,19.4h-4.3V15h4.3V19.4z M38.7,19.4h-4.3V15h4.3
	V19.4z M32.3,19.4h-4.3V15h4.3V19.4z M25.8,19.4h-4.3V15h4.3V19.4z M25.8,21.5v4.3h-4.3v-4.3H25.8z M19.4,25.8H15v-4.3h4.3V25.8z
	 M19.4,27.9v4.3H15v-4.3H19.4z M19.4,34.4v4.3H15v-4.3H19.4z M19.4,40.8v4.3H15v-4.3H19.4z M19.4,47.3v4.3H15v-4.3H19.4z M19.4,53.7
	v4.3H15v-4.3H19.4z M19.4,60.2v4.3H15v-4.3H19.4z M19.4,66.6V71H15v-4.3H19.4z M19.4,73.1v4.3H15v-4.3H19.4z M19.4,79.5v4.3H15v-4.3
	H19.4z M19.4,86v4.3H15V86H19.4z M19.4,92.4v4.3H15v-4.3H19.4z M19.4,98.9v4.3H15v-4.3H19.4z M19.4,105.4v4.3H15v-4.3H19.4z
	 M19.4,111.8v4.3H15v-4.3H19.4z M19.4,118.3v4.3H15v-4.3H19.4z M19.4,124.7v4.3H15v-4.3H19.4z M19.4,131.2v4.3H15v-4.3H19.4z
	 M19.4,137.6v4.3H15v-4.3H19.4z M19.4,144.1v4.3H15v-4.3H19.4z M19.4,150.5v4.3H15v-4.3H19.4z M19.4,157v4.3H15V157H19.4z
	 M19.4,163.4v4.3H15v-4.3H19.4z M19.4,169.9v4.3H15v-4.3H19.4z M19.4,176.3v4.3H15v-4.3H19.4z M21.5,176.3h4.3v4.3h-4.3V176.3z
	 M25.8,182.8v4.3h-4.3v-4.3H25.8z M27.9,182.8h4.3v4.3h-4.3V182.8z M34.4,182.8h4.3v4.3h-4.3V182.8z M40.8,182.8h4.3v4.3h-4.3V182.8
	z M47.3,182.8h4.3v4.3h-4.3V182.8z M53.7,182.8h4.3v4.3h-4.3V182.8z M60.2,182.8h4.3v4.3h-4.3V182.8z M66.6,182.8H71v4.3h-4.3V182.8
	z M73.1,182.8h4.3v4.3h-4.3V182.8z M79.5,182.8h4.3v4.3h-4.3V182.8z M86,182.8h4.3v4.3H86V182.8z M92.4,182.8h4.3v4.3h-4.3V182.8z
	 M98.9,182.8h4.3v4.3h-4.3V182.8z M105.4,182.8h4.3v4.3h-4.3V182.8z M111.8,182.8h4.3v4.3h-4.3V182.8z M118.3,182.8h4.3v4.3h-4.3
	V182.8z M124.7,182.8h4.3v4.3h-4.3V182.8z M131.2,182.8h4.3v4.3h-4.3V182.8z M137.6,182.8h4.3v4.3h-4.3V182.8z M144.1,182.8h4.3v4.3
	h-4.3V182.8z M150.5,182.8h4.3v4.3h-4.3V182.8z M157,182.8h4.3v4.3H157V182.8z M163.4,182.8h4.3v4.3h-4.3V182.8z M169.9,182.8h4.3
	v4.3h-4.3V182.8z M176.3,182.8h4.3v4.3h-4.3V182.8z M176.3,180.6v-4.3h4.3v4.3H176.3z M182.8,176.3h4.3v4.3h-4.3V176.3z
	 M182.8,174.2v-4.3h4.3v4.3H182.8z M182.8,167.7v-4.3h4.3v4.3H182.8z M182.8,161.3V157h4.3v4.3H182.8z M182.8,154.8v-4.3h4.3v4.3
	H182.8z M182.8,148.4v-4.3h4.3v4.3H182.8z M182.8,141.9v-4.3h4.3v4.3H182.8z M182.8,135.5v-4.3h4.3v4.3H182.8z M182.8,129v-4.3h4.3
	v4.3H182.8z M182.8,122.6v-4.3h4.3v4.3H182.8z M182.8,116.1v-4.3h4.3v4.3H182.8z M182.8,109.7v-4.3h4.3v4.3H182.8z M182.8,103.2
	v-4.3h4.3v4.3H182.8z M182.8,96.8v-4.3h4.3v4.3H182.8z M182.8,90.3V86h4.3v4.3H182.8z M182.8,83.9v-4.3h4.3v4.3H182.8z M182.8,77.4
	v-4.3h4.3v4.3H182.8z M182.8,71v-4.3h4.3V71H182.8z M182.8,64.5v-4.3h4.3v4.3H182.8z M182.8,58.1v-4.3h4.3v4.3H182.8z M182.8,51.6
	v-4.3h4.3v4.3H182.8z M182.8,45.2v-4.3h4.3v4.3H182.8z M182.8,38.7v-4.3h4.3v4.3H182.8z M182.8,32.3v-4.3h4.3v4.3H182.8z
	 M182.8,25.8v-4.3h4.3v4.3H182.8z M182.8,19.4V15h4.3v4.3H182.8z M182.8,12.9V8.6h4.3v4.3H182.8z M180.6,12.9h-4.3V8.6h4.3V12.9z
	 M174.2,12.9h-4.3V8.6h4.3V12.9z M167.7,12.9h-4.3V8.6h4.3V12.9z M161.3,12.9H157V8.6h4.3V12.9z M154.8,12.9h-4.3V8.6h4.3V12.9z
	 M148.4,12.9h-4.3V8.6h4.3V12.9z M141.9,12.9h-4.3V8.6h4.3V12.9z M135.5,12.9h-4.3V8.6h4.3V12.9z M129,12.9h-4.3V8.6h4.3V12.9z
	 M122.6,12.9h-4.3V8.6h4.3V12.9z M116.1,12.9h-4.3V8.6h4.3V12.9z M109.7,12.9h-4.3V8.6h4.3V12.9z M103.2,12.9h-4.3V8.6h4.3V12.9z
	 M96.8,12.9h-4.3V8.6h4.3V12.9z M90.3,12.9H86V8.6h4.3V12.9z M83.9,12.9h-4.3V8.6h4.3V12.9z M77.4,12.9h-4.3V8.6h4.3V12.9z M71,12.9
	h-4.3V8.6H71V12.9z M64.5,12.9h-4.3V8.6h4.3V12.9z M58.1,12.9h-4.3V8.6h4.3V12.9z M51.6,12.9h-4.3V8.6h4.3V12.9z M45.2,12.9h-4.3
	V8.6h4.3V12.9z M38.7,12.9h-4.3V8.6h4.3V12.9z M32.3,12.9h-4.3V8.6h4.3V12.9z M25.8,12.9h-4.3V8.6h4.3V12.9z M19.4,12.9H15V8.6h4.3
	V12.9z M19.4,15v4.3H15V15H19.4z M12.9,19.4H8.6V15h4.3V19.4z M12.9,21.5v4.3H8.6v-4.3H12.9z M12.9,27.9v4.3H8.6v-4.3H12.9z
	 M12.9,34.4v4.3H8.6v-4.3H12.9z M12.9,40.8v4.3H8.6v-4.3H12.9z M12.9,47.3v4.3H8.6v-4.3H12.9z M12.9,53.7v4.3H8.6v-4.3H12.9z
	 M12.9,60.2v4.3H8.6v-4.3H12.9z M12.9,66.6V71H8.6v-4.3H12.9z M12.9,73.1v4.3H8.6v-4.3H12.9z M12.9,79.5v4.3H8.6v-4.3H12.9z
	 M12.9,86v4.3H8.6V86H12.9z M12.9,92.4v4.3H8.6v-4.3H12.9z M12.9,98.9v4.3H8.6v-4.3H12.9z M12.9,105.4v4.3H8.6v-4.3H12.9z
	 M12.9,111.8v4.3H8.6v-4.3H12.9z M12.9,118.3v4.3H8.6v-4.3H12.9z M12.9,124.7v4.3H8.6v-4.3H12.9z M12.9,131.2v4.3H8.6v-4.3H12.9z
	 M12.9,137.6v4.3H8.6v-4.3H12.9z M12.9,144.1v4.3H8.6v-4.3H12.9z M12.9,150.5v4.3H8.6v-4.3H12.9z M12.9,157v4.3H8.6V157H12.9z
	 M12.9,163.4v4.3H8.6v-4.3H12.9z M12.9,169.9v4.3H8.6v-4.3H12.9z M12.9,176.3v4.3H8.6v-4.3H12.9z M12.9,182.8v4.3H8.6v-4.3H12.9z
	 M15,182.8h4.3v4.3H15V182.8z M19.4,189.2v4.3H15v-4.3H19.4z M21.5,189.2h4.3v4.3h-4.3V189.2z M27.9,189.2h4.3v4.3h-4.3V189.2z
	 M34.4,189.2h4.3v4.3h-4.3V189.2z M40.8,189.2h4.3v4.3h-4.3V189.2z M47.3,189.2h4.3v4.3h-4.3V189.2z M53.7,189.2h4.3v4.3h-4.3V189.2
	z M60.2,189.2h4.3v4.3h-4.3V189.2z M66.6,189.2H71v4.3h-4.3V189.2z M73.1,189.2h4.3v4.3h-4.3V189.2z M79.5,189.2h4.3v4.3h-4.3V189.2
	z M86,189.2h4.3v4.3H86V189.2z M92.4,189.2h4.3v4.3h-4.3V189.2z M98.9,189.2h4.3v4.3h-4.3V189.2z M105.4,189.2h4.3v4.3h-4.3V189.2z
	 M111.8,189.2h4.3v4.3h-4.3V189.2z M118.3,189.2h4.3v4.3h-4.3V189.2z M124.7,189.2h4.3v4.3h-4.3V189.2z M131.2,189.2h4.3v4.3h-4.3
	V189.2z M137.6,189.2h4.3v4.3h-4.3V189.2z M144.1,189.2h4.3v4.3h-4.3V189.2z M150.5,189.2h4.3v4.3h-4.3V189.2z M157,189.2h4.3v4.3
	H157V189.2z M163.4,189.2h4.3v4.3h-4.3V189.2z M169.9,189.2h4.3v4.3h-4.3V189.2z M176.3,189.2h4.3v4.3h-4.3V189.2z M182.8,189.2h4.3
	v4.3h-4.3V189.2z M182.8,187.1v-4.3h4.3v4.3H182.8z M189.2,182.8h4.3v4.3h-4.3V182.8z M189.2,180.6v-4.3h4.3v4.3H189.2z
	 M189.2,174.2v-4.3h4.3v4.3H189.2z M189.2,167.7v-4.3h4.3v4.3H189.2z M189.2,161.3V157h4.3v4.3H189.2z M189.2,154.8v-4.3h4.3v4.3
	H189.2z M189.2,148.4v-4.3h4.3v4.3H189.2z M189.2,141.9v-4.3h4.3v4.3H189.2z M189.2,135.5v-4.3h4.3v4.3H189.2z M189.2,129v-4.3h4.3
	v4.3H189.2z M189.2,122.6v-4.3h4.3v4.3H189.2z M189.2,116.1v-4.3h4.3v4.3H189.2z M189.2,109.7v-4.3h4.3v4.3H189.2z M189.2,103.2
	v-4.3h4.3v4.3H189.2z M189.2,96.8v-4.3h4.3v4.3H189.2z M189.2,90.3V86h4.3v4.3H189.2z M189.2,83.9v-4.3h4.3v4.3H189.2z M189.2,77.4
	v-4.3h4.3v4.3H189.2z M189.2,71v-4.3h4.3V71H189.2z M189.2,64.5v-4.3h4.3v4.3H189.2z M189.2,58.1v-4.3h4.3v4.3H189.2z M189.2,51.6
	v-4.3h4.3v4.3H189.2z M189.2,45.2v-4.3h4.3v4.3H189.2z M189.2,38.7v-4.3h4.3v4.3H189.2z M189.2,32.3v-4.3h4.3v4.3H189.2z
	 M189.2,25.8v-4.3h4.3v4.3H189.2z M189.2,19.4V15h4.3v4.3H189.2z M189.2,12.9V8.6h4.3v4.3H189.2z M189.2,6.5V2.1h4.3v4.3H189.2z
	 M187.1,6.5h-4.3V2.1h4.3V6.5z M180.6,6.5h-4.3V2.1h4.3V6.5z M174.2,6.5h-4.3V2.1h4.3V6.5z M167.7,6.5h-4.3V2.1h4.3V6.5z M161.3,6.5
	H157V2.1h4.3V6.5z M154.8,6.5h-4.3V2.1h4.3V6.5z M148.4,6.5h-4.3V2.1h4.3V6.5z M141.9,6.5h-4.3V2.1h4.3V6.5z M135.5,6.5h-4.3V2.1
	h4.3V6.5z M129,6.5h-4.3V2.1h4.3V6.5z M122.6,6.5h-4.3V2.1h4.3V6.5z M116.1,6.5h-4.3V2.1h4.3V6.5z M109.7,6.5h-4.3V2.1h4.3V6.5z
	 M103.2,6.5h-4.3V2.1h4.3V6.5z M96.8,6.5h-4.3V2.1h4.3V6.5z M90.3,6.5H86V2.1h4.3V6.5z M83.9,6.5h-4.3V2.1h4.3V6.5z M77.4,6.5h-4.3
	V2.1h4.3V6.5z M71,6.5h-4.3V2.1H71V6.5z M64.5,6.5h-4.3V2.1h4.3V6.5z M58.1,6.5h-4.3V2.1h4.3V6.5z M51.6,6.5h-4.3V2.1h4.3V6.5z
	 M45.2,6.5h-4.3V2.1h4.3V6.5z M38.7,6.5h-4.3V2.1h4.3V6.5z M32.3,6.5h-4.3V2.1h4.3V6.5z M25.8,6.5h-4.3V2.1h4.3V6.5z M19.4,6.5H15
	V2.1h4.3V6.5z M12.9,6.5H8.6V2.1h4.3V6.5z M12.9,8.6v4.3H8.6V8.6H12.9z M6.5,12.9H2.1V8.6h4.3V12.9z M6.5,15v4.3H2.1V15H6.5z
	 M6.5,21.5v4.3H2.1v-4.3H6.5z M6.5,27.9v4.3H2.1v-4.3H6.5z M6.5,34.4v4.3H2.1v-4.3H6.5z M6.5,40.8v4.3H2.1v-4.3H6.5z M6.5,47.3v4.3
	H2.1v-4.3H6.5z M6.5,53.7v4.3H2.1v-4.3H6.5z M6.5,60.2v4.3H2.1v-4.3H6.5z M6.5,66.6V71H2.1v-4.3H6.5z M6.5,73.1v4.3H2.1v-4.3H6.5z
	 M6.5,79.5v4.3H2.1v-4.3H6.5z M6.5,86v4.3H2.1V86H6.5z M6.5,92.4v4.3H2.1v-4.3H6.5z M6.5,98.9v4.3H2.1v-4.3H6.5z M6.5,105.4v4.3H2.1
	v-4.3H6.5z M6.5,111.8v4.3H2.1v-4.3H6.5z M6.5,118.3v4.3H2.1v-4.3H6.5z M6.5,124.7v4.3H2.1v-4.3H6.5z M6.5,131.2v4.3H2.1v-4.3H6.5z
	 M6.5,137.6v4.3H2.1v-4.3H6.5z M6.5,144.1v4.3H2.1v-4.3H6.5z M6.5,150.5v4.3H2.1v-4.3H6.5z M6.5,157v4.3H2.1V157H6.5z M6.5,163.4
	v4.3H2.1v-4.3H6.5z M6.5,169.9v4.3H2.1v-4.3H6.5z M6.5,176.3v4.3H2.1v-4.3H6.5z M6.5,182.8v4.3H2.1v-4.3H6.5z M6.5,189.2v4.3H2.1
	v-4.3H6.5z M8.6,189.2h4.3v4.3H8.6V189.2z M12.9,195.7v4.3H8.6v-4.3H12.9z M15,195.7h4.3v4.3H15V195.7z M21.5,195.7h4.3v4.3h-4.3
	V195.7z M27.9,195.7h4.3v4.3h-4.3V195.7z M34.4,195.7h4.3v4.3h-4.3V195.7z M40.8,195.7h4.3v4.3h-4.3V195.7z M47.3,195.7h4.3v4.3
	h-4.3V195.7z M53.7,195.7h4.3v4.3h-4.3V195.7z M60.2,195.7h4.3v4.3h-4.3V195.7z M66.6,195.7H71v4.3h-4.3V195.7z M73.1,195.7h4.3v4.3
	h-4.3V195.7z M79.5,195.7h4.3v4.3h-4.3V195.7z M86,195.7h4.3v4.3H86V195.7z M92.4,195.7h4.3v4.3h-4.3V195.7z M98.9,195.7h4.3v4.3
	h-4.3V195.7z M105.4,195.7h4.3v4.3h-4.3V195.7z M111.8,195.7h4.3v4.3h-4.3V195.7z M118.3,195.7h4.3v4.3h-4.3V195.7z M124.7,195.7
	h4.3v4.3h-4.3V195.7z M131.2,195.7h4.3v4.3h-4.3V195.7z M137.6,195.7h4.3v4.3h-4.3V195.7z M144.1,195.7h4.3v4.3h-4.3V195.7z
	 M150.5,195.7h4.3v4.3h-4.3V195.7z M157,195.7h4.3v4.3H157V195.7z M163.4,195.7h4.3v4.3h-4.3V195.7z M169.9,195.7h4.3v4.3h-4.3
	V195.7z M176.3,195.7h4.3v4.3h-4.3V195.7z M182.8,195.7h4.3v4.3h-4.3V195.7z M189.2,195.7h4.3v4.3h-4.3V195.7z M189.2,193.5v-4.3
	h4.3v4.3H189.2z M195.7,189.2h4.3v4.3h-4.3V189.2z M195.7,187.1v-4.3h4.3v4.3H195.7z M195.7,180.6v-4.3h4.3v4.3H195.7z M195.7,174.2
	v-4.3h4.3v4.3H195.7z M195.7,167.7v-4.3h4.3v4.3H195.7z M195.7,161.3V157h4.3v4.3H195.7z M195.7,154.8v-4.3h4.3v4.3H195.7z
	 M195.7,148.4v-4.3h4.3v4.3H195.7z M195.7,141.9v-4.3h4.3v4.3H195.7z M195.7,135.5v-4.3h4.3v4.3H195.7z M195.7,129v-4.3h4.3v4.3
	H195.7z M195.7,122.6v-4.3h4.3v4.3H195.7z M195.7,116.1v-4.3h4.3v4.3H195.7z M195.7,109.7v-4.3h4.3v4.3H195.7z M195.7,103.2v-4.3
	h4.3v4.3H195.7z M195.7,96.8v-4.3h4.3v4.3H195.7z M195.7,90.3V86h4.3v4.3H195.7z M195.7,83.9v-4.3h4.3v4.3H195.7z M195.7,77.4v-4.3
	h4.3v4.3H195.7z M195.7,71v-4.3h4.3V71H195.7z M195.7,64.5v-4.3h4.3v4.3H195.7z M195.7,58.1v-4.3h4.3v4.3H195.7z M195.7,51.6v-4.3
	h4.3v4.3H195.7z M195.7,45.2v-4.3h4.3v4.3H195.7z M195.7,38.7v-4.3h4.3v4.3H195.7z M195.7,32.3v-4.3h4.3v4.3H195.7z M195.7,25.8
	v-4.3h4.3v4.3H195.7z M195.7,19.4V15h4.3v4.3H195.7z M195.7,12.9V8.6h4.3v4.3H195.7z M6.5,2.1v4.3H2.1V2.1H6.5z M2.1,195.7h4.3v4.3
	H2.1V195.7z M195.7,200v-4.3h4.3v4.3H195.7z"/>
<g>
	<polygon class="st0" points="40.3,97.8 26.1,97.8 26.1,111.3 13.4,111.3 13.4,124.8 26.1,124.8 26.1,136.8 38.7,136.8 40.3,136.8 
		53.8,136.8 53.8,124.8 67.1,124.8 67.1,111.3 40.3,111.3 	"/>
	<polygon class="st0" points="104.8,13.4 90.7,13.4 90.7,26.5 78.7,26.5 78.7,13.2 36,13.2 36,13.4 26.2,13.4 26.2,26.9 14.5,26.9 
		14.5,45.8 26.2,45.8 26.2,60 40.4,60 40.4,53 52.7,53 52.7,39.5 40.4,39.5 40.4,27.6 78.5,27.6 78.5,40.2 65.3,40.2 65.3,68.5 
		53.6,68.5 53.6,82 65.3,82 65.3,110.4 78.7,110.4 78.7,97.8 91.2,97.8 91.2,27.5 104.8,27.5 	"/>
</g>
<g>
	<polygon class="st0" points="123.9,149.6 109.7,149.6 109.7,163.1 97,163.1 97,176.6 109.7,176.6 109.7,188.6 122.3,188.6 
		123.9,188.6 137.4,188.6 137.4,176.6 150.8,176.6 150.8,163.1 123.9,163.1 	"/>
	<polygon class="st0" points="188.4,65.2 174.3,65.2 174.3,78.3 162.4,78.3 162.4,65 119.7,65 119.7,65.2 109.9,65.2 109.9,78.7 
		98.2,78.7 98.2,97.6 109.9,97.6 109.9,111.8 124,111.8 124,104.8 136.3,104.8 136.3,91.3 124,91.3 124,79.4 162.1,79.4 162.1,92 
		149,92 149,120.3 137.3,120.3 137.3,133.8 149,133.8 149,162.2 162.4,162.2 162.4,149.6 174.8,149.6 174.8,79.3 188.4,79.3 	"/>
</g>
</svg>
