<?xml version="1.0" encoding="utf-8"?>
<!-- Generator: Adobe Illustrator 25.4.0, SVG Export Plug-In . SVG Version: 6.00 Build 0)  -->
<svg version="1.1" xmlns="http://www.w3.org/2000/svg" xmlns:xlink="http://www.w3.org/1999/xlink" x="0px"
	 y="0px" viewBox="0 0 21.09 12.92" style="enable-background:new 0 0 21.09 12.92;" xml:space="preserve">
<path d="M10.54,6.36c0-0.67,0.52-1.19,1.19-1.19h2.89c0.67,0,1.19-0.52,1.19-1.19V1.19C15.81,0.52,16.33,0,17,0h2.9
	c0.67,0,1.19,0.52,1.19,1.19v2.79c0,0.67-0.52,1.19-1.19,1.19H17c-0.67,0-1.19,0.52-1.19,1.19v5.38c0,0.67-0.52,1.19-1.19,1.19
	h-2.89c-0.67,0-1.19-0.52-1.19-1.19V6.36z M9.35,5.17H6.46c-0.67,0-1.19,0.52-1.19,1.19v5.38c0,0.67-0.52,1.19-1.19,1.19h-2.9
	C0.52,12.92,0,12.4,0,11.73V6.36c0-0.67,0.52-1.19,1.19-1.19h2.9c0.67,0,1.19-0.52,1.19-1.19V1.19C5.27,0.52,5.79,0,6.46,0h2.89
	c0.67,0,1.19,0.52,1.19,1.19v2.79C10.54,4.65,10.03,5.17,9.35,5.17"/>
</svg>
