<?xml version="1.0" encoding="utf-8"?>
<!-- Generator: Adobe Illustrator 25.4.0, SVG Export Plug-In . SVG Version: 6.00 Build 0)  -->
<svg version="1.1" id="레이어_1" xmlns="http://www.w3.org/2000/svg" xmlns:xlink="http://www.w3.org/1999/xlink" x="0px"
	 y="0px" viewBox="0 0 335.2 188.7" style="enable-background:new 0 0 335.2 188.7;" xml:space="preserve">
<style type="text/css">
	.st0{fill:#fcf003;}
</style>
<g>
	<g>
		<rect x="0" class="st0" width="335.2" height="8.7"/>
	</g>
	<g>
		<rect x="0" y="185.8" class="st0" width="335.2" height="2.9"/>
	</g>
	<g>
		<g>
			<g>
				<path class="st0" d="M320.1,87.7l15.1,15.1l-15.1,15.1v-9.6h-44V97.4h44V87.7z"/>
			</g>
		</g>
		<g>
			<g>
				<path class="st0" d="M320.1,56.6l15.1,15.1l-15.1,15.1v-9.6h-44V66.3h44V56.6z"/>
			</g>
		</g>
		<g>
			<g>
				<path class="st0" d="M261.1,117.9V56.6H272v61.2H261.1z"/>
			</g>
		</g>
	</g>
	<g>
		<g>
			<path class="st0" d="M65.5,117.3L51.3,51.6l-14.2,65.7H21.3L44,16h14.6l22.7,101.3H65.5z M109.9,117.9h-15V63.7H76.6V48.9h18.3
				V15.5h15V117.9z"/>
		</g>
		<g>
			<path class="st0" d="M211.3,100.9h-66.4v5.1h66.4v11.9h-80.5V89.4h66.4v-5h-66.4V73h32.7v-5.8h-39V55.4h93.1v11.7h-39V73h32.7
				V100.9z M192.9,16c10.7,0,19.3,6.7,19.3,17.3s-8.5,17.2-19.3,17.2h-43.7c-10.6,0-19.3-6.6-19.3-17.2S138.6,16,149.2,16H192.9z
				 M149.3,28.9c-2.6,0-4.7,1.8-4.7,4.4c0,2.6,2.1,4.4,4.7,4.4h43.5c2.6,0,4.7-1.8,4.7-4.4c0-2.6-2.1-4.4-4.7-4.4H149.3z"/>
		</g>
	</g>
	<g>
		<rect x="261.1" y="0" class="st0" width="74.1" height="51.5"/>
	</g>
	<g>
		<rect y="0.4" class="st0" width="14.7" height="117.5"/>
	</g>
	<g>
		<g>
			<path class="st0" d="M15.9,133.3c5.3,0,9.8,1.8,13.3,5.5c3.6,3.7,5.4,8.3,5.4,13.7c0,5.5-1.8,10-5.4,13.7
				c-3.6,3.7-8,5.5-13.3,5.5H0v-38.5H15.9z M15.9,161.1c2.2,0,4.1-0.8,5.5-2.4c1.4-1.6,2.2-3.7,2.2-6.2s-0.7-4.6-2.2-6.2
				c-1.4-1.6-3.3-2.4-5.5-2.4h-4.4v17.2H15.9z"/>
		</g>
		<g>
			<path class="st0" d="M65.2,168.9c-2.9,2.5-6.7,3.8-11.3,3.8c-4.7,0-8.4-1.3-11.3-3.8c-2.9-2.5-4.3-5.8-4.3-9.9v-25.6h11v24.4
				c0,2.9,1.6,4.3,4.7,4.3c3.1,0,4.7-1.4,4.7-4.3v-24.4h11v25.6C69.5,163,68.1,166.3,65.2,168.9z M51.7,130.3
				c-0.9,0.9-2,1.4-3.3,1.4c-1.3,0-2.4-0.5-3.3-1.4c-0.9-0.9-1.4-2-1.4-3.3s0.5-2.4,1.4-3.3c0.9-0.9,2-1.4,3.3-1.4
				c1.3,0,2.4,0.5,3.3,1.4c0.9,0.9,1.4,2,1.4,3.3S52.6,129.4,51.7,130.3z M62.7,130.3c-0.9,0.9-2,1.4-3.3,1.4
				c-1.3,0-2.4-0.5-3.3-1.4c-0.9-0.9-1.4-2-1.4-3.3s0.5-2.4,1.4-3.3c0.9-0.9,2-1.4,3.3-1.4c1.3,0,2.4,0.5,3.3,1.4
				c0.9,0.9,1.4,2,1.4,3.3S63.6,129.4,62.7,130.3z"/>
		</g>
		<g>
			<path class="st0" d="M88.3,172.7c-4.2,0-7.7-0.9-10.4-2.6c-2.8-1.7-4.7-4.1-5.6-7.1l9.4-5.4c1.3,3.3,3.6,4.9,6.9,4.9
				c2.5,0,3.7-0.7,3.7-2c0-0.4-0.1-0.7-0.3-1c-0.2-0.3-0.5-0.5-1-0.8c-0.5-0.2-1-0.4-1.3-0.5c-0.4-0.1-1.1-0.3-2-0.6
				s-1.7-0.5-2.1-0.6c-7.7-2.3-11.5-6.4-11.5-12.4c0-3.5,1.3-6.4,3.8-8.7c2.5-2.3,5.9-3.5,10-3.5c3.3,0,6.2,0.8,8.8,2.3
				c2.6,1.5,4.5,3.8,5.7,6.7l-9.1,5.3c-1.1-2.7-2.8-4.1-5.3-4.1c-1,0-1.7,0.2-2.2,0.6c-0.5,0.4-0.7,0.9-0.7,1.5
				c0,0.8,0.4,1.4,1.3,1.9c0.9,0.4,2.5,1,5,1.7c1.8,0.5,3.3,1.1,4.5,1.6c1.2,0.5,2.4,1.2,3.7,2.1c1.3,0.9,2.2,2.1,2.9,3.5
				c0.6,1.4,1,3.1,1,5c0,3.9-1.3,7-4,9.1C96.6,171.6,93,172.7,88.3,172.7z"/>
		</g>
		<g>
			<path class="st0" d="M119.9,172.7c-4.2,0-7.7-0.9-10.4-2.6c-2.8-1.7-4.7-4.1-5.6-7.1l9.4-5.4c1.3,3.3,3.6,4.9,6.9,4.9
				c2.5,0,3.7-0.7,3.7-2c0-0.4-0.1-0.7-0.3-1c-0.2-0.3-0.5-0.5-1-0.8c-0.5-0.2-1-0.4-1.3-0.5c-0.4-0.1-1.1-0.3-2-0.6
				s-1.7-0.5-2.1-0.6c-7.7-2.3-11.5-6.4-11.5-12.4c0-3.5,1.3-6.4,3.8-8.7c2.5-2.3,5.9-3.5,10-3.5c3.3,0,6.2,0.8,8.8,2.3
				c2.6,1.5,4.5,3.8,5.7,6.7l-9.1,5.3c-1.1-2.7-2.8-4.1-5.3-4.1c-1,0-1.7,0.2-2.2,0.6c-0.5,0.4-0.7,0.9-0.7,1.5
				c0,0.8,0.4,1.4,1.3,1.9c0.9,0.4,2.5,1,5,1.7c1.8,0.5,3.3,1.1,4.5,1.6c1.2,0.5,2.4,1.2,3.7,2.1c1.3,0.9,2.2,2.1,2.9,3.5
				c0.6,1.4,1,3.1,1,5c0,3.9-1.3,7-4,9.1C128.2,171.6,124.6,172.7,119.9,172.7z"/>
		</g>
		<g>
			<path class="st0" d="M149,161.7h14.3v10.1H138v-38.5h25v10h-14v4.2h12.6v9.9H149V161.7z"/>
		</g>
		<g>
			<path class="st0" d="M178.7,161.1h12.6v10.7h-23.6v-38.5h11V161.1z"/>
		</g>
		<g>
			<path class="st0" d="M210.5,133.3c5.3,0,9.8,1.8,13.3,5.5c3.6,3.7,5.4,8.3,5.4,13.7c0,5.5-1.8,10-5.4,13.7
				c-3.6,3.7-8,5.5-13.3,5.5h-15.9v-38.5H210.5z M210.5,161.1c2.2,0,4.1-0.8,5.5-2.4c1.4-1.6,2.2-3.7,2.2-6.2s-0.7-4.6-2.2-6.2
				c-1.4-1.6-3.3-2.4-5.5-2.4h-4.4v17.2H210.5z"/>
		</g>
		<g>
			<path class="st0" d="M266.9,166.9c-3.9,3.9-8.8,5.8-14.5,5.8s-10.5-1.9-14.5-5.8c-3.9-3.9-5.9-8.6-5.9-14.3
				c0-5.7,2-10.5,5.9-14.3c3.9-3.9,8.8-5.8,14.5-5.8s10.5,1.9,14.5,5.8c3.9,3.9,5.9,8.6,5.9,14.3C272.8,158.2,270.8,163,266.9,166.9
				z M245.6,159.2c1.8,1.8,4,2.7,6.7,2.7c2.7,0,5-0.9,6.7-2.7c1.8-1.8,2.7-4,2.7-6.7c0-2.7-0.9-4.9-2.7-6.7c-1.8-1.8-4-2.7-6.7-2.7
				c-2.7,0-5,0.9-6.7,2.7c-1.8,1.8-2.7,4-2.7,6.7C243,155.2,243.9,157.4,245.6,159.2z"/>
		</g>
		<g>
			<path class="st0" d="M296.7,171.7l-6.1-12.1h-2.7v12.1h-11v-38.5h15.4c4.2,0,7.7,1.2,10.4,3.7c2.7,2.5,4.1,5.7,4.1,9.8
				c0,2.3-0.5,4.3-1.6,6.2c-1,1.8-2.5,3.3-4.4,4.5l7.6,14.3H296.7z M287.9,143.4v7.1h4.2c1.2,0,2.1-0.3,2.8-0.9c0.7-0.6,1-1.5,1-2.6
				c0-1.1-0.3-2-1-2.7c-0.7-0.6-1.6-1-2.8-1H287.9z"/>
		</g>
		<g>
			<path class="st0" d="M335.2,144h-12.9v5h12.6v10.7h-12.6v12.1h-11v-38.5h23.9V144z"/>
		</g>
	</g>
	<g>
		<g>
			<path class="st0" d="M228.7,26.3c0-2.5,0.5-4.6,1.6-6.3c1-1.7,2.5-2.8,4.2-3.4l3.3,5.7c-2,0.8-2.9,2.2-2.9,4.2
				c0,1.5,0.4,2.2,1.2,2.2c0.2,0,0.4-0.1,0.6-0.2c0.2-0.1,0.3-0.3,0.5-0.6c0.1-0.3,0.2-0.6,0.3-0.8c0.1-0.2,0.2-0.6,0.3-1.2
				c0.2-0.6,0.3-1,0.4-1.3c1.4-4.6,3.9-6.9,7.4-6.9c2.1,0,3.9,0.8,5.3,2.3c1.4,1.5,2.1,3.5,2.1,6c0,2-0.5,3.7-1.4,5.3
				c-0.9,1.6-2.3,2.7-4,3.4l-3.2-5.5c1.6-0.6,2.4-1.7,2.4-3.2c0-0.6-0.1-1-0.3-1.3s-0.5-0.4-0.9-0.4c-0.5,0-0.9,0.3-1.1,0.8
				c-0.3,0.5-0.6,1.5-1,3c-0.3,1.1-0.6,2-0.9,2.7c-0.3,0.7-0.7,1.4-1.3,2.2c-0.5,0.8-1.2,1.4-2.1,1.7c-0.8,0.4-1.8,0.6-3,0.6
				c-2.4,0-4.2-0.8-5.5-2.4C229.3,31.3,228.7,29.1,228.7,26.3z"/>
		</g>
		<g>
			<path class="st0" d="M235.3,43.8v8.6h-6.1V37.1h23.1v15h-6v-8.4h-2.5v7.6h-6v-7.6H235.3z"/>
		</g>
		<g>
			<path class="st0" d="M232.2,75c-2.3-2.4-3.5-5.3-3.5-8.7c0-3.4,1.2-6.3,3.5-8.7c2.3-2.4,5.2-3.6,8.6-3.6c3.4,0,6.3,1.2,8.6,3.6
				c2.3,2.4,3.5,5.3,3.5,8.7c0,3.4-1.2,6.3-3.5,8.7c-2.3,2.4-5.2,3.6-8.6,3.6C237.4,78.5,234.5,77.4,232.2,75z M236.8,62.2
				c-1.1,1.1-1.6,2.4-1.6,4.1s0.5,3,1.6,4.1c1.1,1.1,2.4,1.6,4,1.6c1.6,0,2.9-0.5,4-1.6c1.1-1.1,1.6-2.4,1.6-4.1s-0.5-3-1.6-4.1
				c-1.1-1.1-2.4-1.6-4-1.6C239.2,60.6,237.9,61.1,236.8,62.2z"/>
		</g>
		<g>
			<path class="st0" d="M231,96.9c-1.5-1.7-2.3-4-2.3-6.8c0-2.8,0.8-5.1,2.3-6.8c1.5-1.7,3.5-2.6,6-2.6h15.4v6.6h-14.7
				c-1.7,0-2.6,0.9-2.6,2.8c0,1.9,0.9,2.8,2.6,2.8h14.7v6.6H237C234.5,99.5,232.5,98.7,231,96.9z"/>
		</g>
		<g>
			<path class="st0" d="M235.6,109.1v7.6h-6.4v-14.2h23.1v6.6H235.6z"/>
		</g>
	</g>
</g>
</svg>
