<?xml version="1.0" encoding="utf-8"?>
<!-- Generator: Adobe Illustrator 25.4.0, SVG Export Plug-In . SVG Version: 6.00 Build 0)  -->
<svg version="1.1" id="레이어_1" xmlns="http://www.w3.org/2000/svg" xmlns:xlink="http://www.w3.org/1999/xlink" x="0px"
	 y="0px" viewBox="0 0 211.8 115.9" style="enable-background:new 0 0 211.8 115.9;" xml:space="preserve">
<style type="text/css">
	.st0{fill:#fcf003;}
</style>
<g>
	<g>
		<ellipse class="st0" cx="33" cy="45.2" rx="7.1" ry="12.2"/>
		<ellipse class="st0" cx="70.8" cy="45.2" rx="7.1" ry="12.2"/>
		<path class="st0" d="M51.9,92.1c-12.3,0-24.8-8.5-29-19.8c-0.6-1.7,0.2-3.6,1.9-4.2s3.6,0.2,4.2,1.9c3.2,8.5,13.5,15.5,22.9,15.5
			c9.7,0,20.6-5.2,22.7-15c0.4-1.8,2.1-2.9,3.9-2.5c1.8,0.4,2.9,2.1,2.5,3.9C78.2,85.7,63.9,92.1,51.9,92.1z"/>
		<path class="st0" d="M52.1,71.2c-0.5,0-1.1-0.1-1.6-0.4l-5.7-3.2c-1-0.5-1.6-1.5-1.7-2.6c-0.1-1.1,0.4-2.2,1.3-2.9
			c0.3-0.3,1.4-1.3,1.9-2.3c0.9-1.9,1.9-5.4,1.9-5.5c0.5-1.8,2.3-2.8,4.1-2.3c1.8,0.5,2.8,2.3,2.3,4.1c-0.1,0.4-1.2,4.2-2.2,6.5
			c-0.2,0.4-0.4,0.8-0.7,1.2l2.2,1.2c1.6,0.9,2.2,2.9,1.3,4.5C54.4,70.6,53.3,71.2,52.1,71.2z"/>
	</g>
	<path class="st0" d="M153.9,115.9c-13,0-25.3-4.3-35.6-12.4c-7.4-5.9-17.4-5.9-24.8,0c-10.2,8.1-22.5,12.4-35.6,12.4
		c-17.5,0-33.9-7.8-45-21.4s-15.3-31.5-11.6-49C6,23.1,24.3,5.2,46.9,1c16.9-3.1,33.4,0.9,46.6,11.4c7.4,5.9,17.4,5.9,24.8,0
		C131.5,1.9,148-2.1,164.9,1l0,0c22.6,4.2,40.9,22,45.6,44.4c3.7,17.5-0.6,35.4-11.6,49C187.8,108,171.4,115.9,153.9,115.9z
		 M105.9,91.5c6,0,12,2,17.1,6.1c8.9,7.1,19.6,10.8,30.9,10.8c15.3,0,29.6-6.8,39.2-18.7s13.3-27.5,10.1-42.8
		c-4.1-19.4-20-34.9-39.7-38.6l0,0c-14.7-2.7-29.1,0.8-40.6,9.9c-10.2,8.1-23.9,8.1-34.1,0C77.4,9.2,62.9,5.7,48.3,8.4
		C28.6,12,12.7,27.5,8.6,47C5.4,62.3,9.1,77.8,18.7,89.7c9.6,11.9,23.9,18.7,39.2,18.7c11.3,0,22-3.7,30.9-10.8
		C93.9,93.6,99.9,91.5,105.9,91.5z"/>
	<g>
		<ellipse class="st0" cx="178.7" cy="45.2" rx="7.1" ry="12.2"/>
		<ellipse class="st0" cx="141" cy="45.2" rx="7.1" ry="12.2"/>
		<path class="st0" d="M159.9,92.1c12.3,0,24.8-8.5,29.1-19.8c0.6-1.7-0.2-3.6-1.9-4.2c-1.7-0.6-3.6,0.2-4.2,1.9
			c-3.2,8.5-13.5,15.5-22.9,15.5c-9.7,0-20.6-5.2-22.7-15c-0.4-1.8-2.1-2.9-3.9-2.5c-1.8,0.4-2.9,2.1-2.5,3.9
			C133.6,85.7,147.9,92.1,159.9,92.1z"/>
		<path class="st0" d="M159.7,71.2c0.5,0,1.1-0.1,1.6-0.4l5.8-3.2c1-0.5,1.6-1.5,1.7-2.6c0.1-1.1-0.4-2.2-1.3-2.9
			c-0.3-0.3-1.4-1.3-1.9-2.3c-0.9-1.9-1.9-5.4-1.9-5.5c-0.5-1.8-2.3-2.8-4.1-2.3c-1.8,0.5-2.8,2.3-2.3,4.1c0.1,0.4,1.2,4.2,2.2,6.5
			c0.2,0.4,0.4,0.8,0.7,1.2l-2.2,1.2c-1.6,0.9-2.2,2.9-1.3,4.5C157.4,70.6,158.5,71.2,159.7,71.2z"/>
	</g>
</g>
</svg>
