<?xml version="1.0" encoding="utf-8"?>
<!-- Generator: Adobe Illustrator 25.4.0, SVG Export Plug-In . SVG Version: 6.00 Build 0)  -->
<svg version="1.1" id="레이어_1" xmlns="http://www.w3.org/2000/svg" xmlns:xlink="http://www.w3.org/1999/xlink" x="0px"
	 y="0px" viewBox="0 0 69.9 103.3" style="enable-background:new 0 0 69.9 103.3;" xml:space="preserve">
<style type="text/css">
	.st0{fill:#fcf003;}
</style>
<g>
	<polygon class="st0" points="0,0 0,2.4 2.4,0 	"/>
	<polygon class="st0" points="6.3,0 0,6.3 0,10.2 10.2,0 	"/>
	<polygon class="st0" points="14.1,0 0,14.1 0,18 18,0 	"/>
	<polygon class="st0" points="21.9,0 0,21.9 0,25.8 25.8,0 	"/>
	<polygon class="st0" points="29.7,0 0,29.7 0,33.5 33.5,0 	"/>
	<polygon class="st0" points="37.4,0 0,37.4 0,41.3 41.3,0 	"/>
	<polygon class="st0" points="45.2,0 0,45.2 0,49.1 49.1,0 	"/>
	<polygon class="st0" points="53,0 0,53 0,56.9 56.9,0 	"/>
	<polygon class="st0" points="60.8,0 0,60.8 0,64.7 64.7,0 	"/>
	<polygon class="st0" points="69.9,0 68.5,0 0,68.5 0,72.4 69.9,2.5 	"/>
	<polygon class="st0" points="69.9,6.4 0,76.3 0,80.2 69.9,10.3 	"/>
	<polygon class="st0" points="69.9,14.2 0,84.1 0,88 69.9,18 	"/>
	<polygon class="st0" points="69.9,21.9 0,91.9 0,95.8 69.9,25.8 	"/>
	<polygon class="st0" points="69.9,29.7 0,99.6 0,103.3 0.2,103.3 69.9,33.6 	"/>
	<polygon class="st0" points="8,103.3 69.9,41.4 69.9,37.5 4.1,103.3 	"/>
	<polygon class="st0" points="15.8,103.3 69.9,49.1 69.9,45.3 11.9,103.3 	"/>
	<polygon class="st0" points="23.6,103.3 69.9,56.9 69.9,53 19.7,103.3 	"/>
	<polygon class="st0" points="31.3,103.3 69.9,64.7 69.9,60.8 27.4,103.3 	"/>
	<polygon class="st0" points="39.1,103.3 69.9,72.5 69.9,68.6 35.2,103.3 	"/>
	<polygon class="st0" points="46.9,103.3 69.9,80.3 69.9,76.4 43,103.3 	"/>
	<polygon class="st0" points="54.7,103.3 69.9,88 69.9,84.1 50.8,103.3 	"/>
	<polygon class="st0" points="62.4,103.3 69.9,95.8 69.9,91.9 58.6,103.3 	"/>
	<polygon class="st0" points="69.9,103.3 69.9,99.7 66.3,103.3 	"/>
</g>
</svg>
